<svg width="50" height="50" viewBox="0 0 50 50" fill="none" xmlns="http://www.w3.org/2000/svg">
<g clip-path="url(#clip0_200_5381)">
<path d="M29.1667 6.25V14.5833C29.1667 15.1359 29.3862 15.6658 29.7769 16.0565C30.1676 16.4472 30.6975 16.6667 31.2501 16.6667H39.5834" stroke="#BE1E2D" stroke-width="2" stroke-linecap="round" stroke-linejoin="round"/>
<path d="M35.4167 43.75H14.5834C13.4783 43.75 12.4185 43.311 11.6371 42.5296C10.8557 41.7482 10.4167 40.6884 10.4167 39.5833V10.4167C10.4167 9.3116 10.8557 8.25179 11.6371 7.47039C12.4185 6.68899 13.4783 6.25 14.5834 6.25H29.1667L39.5834 16.6667V39.5833C39.5834 40.6884 39.1444 41.7482 38.363 42.5296C37.5816 43.311 36.5218 43.75 35.4167 43.75Z" stroke="#BE1E2D" stroke-width="2" stroke-linecap="round" stroke-linejoin="round"/>
<path d="M25 20.8333V29.1666H33.3333" stroke="#BE1E2D" stroke-width="2" stroke-linecap="round" stroke-linejoin="round"/>
<path d="M25.0001 37.4999C29.6025 37.4999 33.3334 33.769 33.3334 29.1666C33.3334 24.5642 29.6025 20.8333 25.0001 20.8333C20.3977 20.8333 16.6667 24.5642 16.6667 29.1666C16.6667 33.769 20.3977 37.4999 25.0001 37.4999Z" stroke="#BE1E2D" stroke-width="2" stroke-linecap="round" stroke-linejoin="round"/>
</g>
<defs>
<clipPath id="clip0_200_5381">
<rect width="50" height="50" fill="white"/>
</clipPath>
</defs>
</svg>
