<svg width="50" height="50" viewBox="0 0 50 50" fill="none" xmlns="http://www.w3.org/2000/svg">
<g clip-path="url(#clip0_200_5309)">
<path d="M24.9999 6.25L41.6666 15.625V34.375L24.9999 43.75L8.33325 34.375V15.625L24.9999 6.25Z" stroke="#DAA520" stroke-width="2" stroke-linecap="round" stroke-linejoin="round"/>
<path d="M25 25L41.6667 15.625" stroke="#DAA520" stroke-width="2" stroke-linecap="round" stroke-linejoin="round"/>
<path d="M25 25V43.75" stroke="#DAA520" stroke-width="2" stroke-linecap="round" stroke-linejoin="round"/>
<path d="M24.9999 25L8.33325 15.625" stroke="#DAA520" stroke-width="2" stroke-linecap="round" stroke-linejoin="round"/>
<path d="M33.3334 10.9375L16.6667 20.3125" stroke="#DAA520" stroke-width="2" stroke-linecap="round" stroke-linejoin="round"/>
<path d="M43.7695 24L43.9424 24.0088C44.7957 24.0955 45.4619 24.8162 45.4619 25.6924V36.7695H48.4121C49.8898 36.7695 50.6578 38.5305 49.6523 39.6133L42.2402 47.5957C41.5707 48.3167 40.4293 48.3167 39.7598 47.5957L32.3477 39.6133C31.3422 38.5305 32.1102 36.7695 33.5879 36.7695H35.8457V25.6924C35.8457 24.7579 36.6036 24.0002 37.5381 24H43.7695Z" fill="white" stroke="#DAA520" stroke-width="2"/>
</g>
<defs>
<clipPath id="clip0_200_5309">
<rect width="50" height="50" fill="white"/>
</clipPath>
</defs>
</svg>
